<svg id="svg" version="1.1" xmlns="http://www.w3.org/2000/svg" xmlns:xlink="http://www.w3.org/1999/xlink" width="400" height="409.478672985782" viewBox="0, 0, 400,409.478672985782"><g id="svgg"><path id="path0" d="M241.806 104.690 C 235.853 112.798,230.930 119.426,230.867 119.420 C 230.804 119.414,225.840 113.585,219.834 106.466 C 213.829 99.347,208.849 93.523,208.768 93.523 C 208.687 93.523,204.541 110.087,199.555 130.332 L 190.489 167.141 141.535 199.413 C 114.610 217.162,92.554 231.764,92.522 231.860 C 92.490 231.957,94.117 235.965,96.139 240.768 L 99.814 249.500 102.664 250.342 C 104.232 250.806,105.605 251.280,105.716 251.395 C 105.827 251.511,108.807 259.236,112.338 268.562 C 125.409 303.086,133.381 324.072,133.518 324.322 C 133.614 324.498,143.523 318.956,164.680 306.892 C 181.742 297.164,195.819 289.205,195.962 289.205 C 196.368 289.205,210.701 293.816,210.854 293.995 C 210.928 294.083,219.163 310.046,229.152 329.468 C 239.142 348.890,247.428 364.925,247.565 365.101 C 247.785 365.382,248.143 365.323,250.553 364.613 C 306.838 348.012,350.403 303.430,365.567 246.912 C 366.263 244.318,366.333 243.865,366.073 243.626 C 365.907 243.474,344.746 224.510,319.049 201.486 C 293.352 178.461,272.237 159.419,272.127 159.169 C 272.017 158.919,267.617 143.274,262.348 124.401 C 257.080 105.529,252.738 90.056,252.700 90.018 C 252.662 89.980,247.760 96.582,241.806 104.690 M250.764 192.400 C 288.656 198.020,307.663 241.146,286.093 272.565 C 264.114 304.581,215.709 301.615,197.857 267.159 C 197.087 265.672,196.436 264.427,196.412 264.394 C 196.387 264.360,194.767 264.932,192.812 265.664 L 189.258 266.995 189.088 267.937 C 188.103 273.428,185.307 276.828,180.516 278.360 C 179.879 278.564,170.448 282.424,159.558 286.939 C 148.668 291.453,139.544 295.229,139.284 295.330 L 138.810 295.514 138.819 291.359 L 138.828 287.204 146.494 279.305 L 154.160 271.406 155.368 267.930 C 156.033 266.019,156.824 263.795,157.126 262.989 L 157.676 261.523 164.831 258.710 C 168.766 257.164,172.507 255.698,173.144 255.453 C 176.816 254.043,182.031 255.088,185.016 257.833 L 186.065 258.797 189.662 257.450 C 193.992 255.828,193.622 256.193,193.142 254.028 C 186.727 225.099,207.724 195.679,237.177 192.329 C 238.278 192.203,239.463 192.061,239.810 192.012 C 241.111 191.829,248.736 192.099,250.764 192.400 M238.720 200.968 C 205.748 204.810,189.472 243.636,209.899 269.721 C 230.892 296.528,273.567 289.101,284.145 256.799 C 293.811 227.283,269.484 197.383,238.720 200.968 M246.619 204.545 C 252.155 205.147,252.414 205.691,247.243 205.854 C 220.755 206.687,202.107 228.500,206.599 253.397 C 206.978 255.497,207.003 255.941,206.724 255.662 C 206.002 254.940,205.106 248.456,205.101 243.918 C 205.074 220.596,224.534 202.142,246.619 204.545 M266.035 275.504 C 266.035 275.614,265.379 276.269,264.578 276.958 C 258.646 282.064,250.373 284.713,244.497 283.388 C 242.432 282.923,246.855 281.322,252.870 280.359 C 257.162 279.671,261.352 278.131,264.560 276.061 C 265.782 275.273,266.035 275.177,266.035 275.504 " stroke="none" fill="#0a0a0a" fill-rule="evenodd"></path><path id="path1" d="M194.988 26.956 C 89.704 32.422,12.829 126.630,28.775 230.648 C 40.584 307.680,102.511 368.400,179.674 378.604 C 295.158 393.875,393.126 296.635,378.712 181.043 C 367.371 90.093,286.430 22.209,194.988 26.956 M215.061 36.025 C 325.309 44.250,397.754 153.335,362.287 257.715 C 327.119 361.217,202.873 403.883,111.408 343.866 C 22.199 285.330,9.506 159.448,85.238 84.323 C 115.287 54.515,153.365 37.964,197.051 35.724 C 199.708 35.587,211.938 35.792,215.061 36.025 M238.863 192.104 C 208.217 195.297,187.233 223.371,193.059 253.383 C 193.338 254.824,193.545 256.021,193.519 256.043 C 193.492 256.065,191.812 256.698,189.784 257.448 L 186.099 258.813 184.940 257.779 C 182.734 255.809,180.156 254.875,176.935 254.878 C 174.572 254.880,174.731 254.829,164.613 258.803 L 157.662 261.533 155.937 266.452 L 154.211 271.372 152.660 272.969 C 151.807 273.847,148.340 277.423,144.955 280.916 L 138.801 287.266 138.858 291.362 L 138.915 295.458 159.031 287.118 C 170.095 282.531,179.716 278.601,180.411 278.384 C 185.060 276.935,188.255 273.246,188.961 268.511 L 189.189 266.983 192.768 265.648 C 194.737 264.914,196.390 264.356,196.442 264.408 C 196.494 264.460,196.904 265.261,197.352 266.189 C 210.819 294.036,246.627 303.524,272.459 286.089 C 298.899 268.244,302.793 230.611,280.579 207.606 C 269.913 196.561,253.747 190.553,238.863 192.104 M249.426 201.067 C 282.123 205.627,297.598 244.279,277.047 270.056 C 255.116 297.563,211.159 288.222,202.196 254.151 C 194.508 224.925,219.453 196.886,249.426 201.067 M292.897 251.027 C 292.586 254.884,291.449 259.958,290.505 261.706 C 289.918 262.792,287.935 264.982,287.538 264.982 C 286.851 264.982,287.724 261.188,288.991 258.669 C 290.012 256.638,291.484 253.059,292.156 250.974 C 292.944 248.529,293.098 248.540,292.897 251.027 M285.766 269.331 C 275.441 289.676,247.577 299.606,227.344 290.151 C 224.295 288.726,219.708 285.799,221.696 286.546 C 247.845 296.381,271.388 290.250,284.844 270.101 C 286.247 268.000,286.584 267.719,285.766 269.331 M103.423 282.628 C 96.761 284.891,91.286 286.762,91.255 286.784 C 90.996 286.972,98.730 309.010,99.037 308.959 C 101.183 308.599,124.276 300.420,124.184 300.053 C 123.790 298.469,116.045 278.563,115.815 278.540 C 115.661 278.525,110.084 280.364,103.423 282.628 " stroke="none" fill="#e35353" fill-rule="evenodd"></path><path id="path2" d="M194.418 35.953 C 93.689 41.746,21.132 132.918,38.135 232.333 C 50.036 301.919,105.549 357.172,175.355 368.910 C 191.667 371.653,211.056 371.894,227.253 369.556 C 235.170 368.414,247.659 365.753,247.455 365.253 C 247.167 364.545,210.938 294.306,210.762 294.115 C 210.636 293.977,207.242 292.814,203.221 291.530 L 195.910 289.195 164.818 306.921 C 147.142 316.998,133.648 324.567,133.545 324.461 C 133.446 324.359,131.355 318.968,128.898 312.480 C 126.441 305.993,124.411 300.660,124.386 300.630 C 124.362 300.599,118.578 302.520,111.533 304.898 C 104.488 307.276,98.695 309.191,98.658 309.155 C 98.622 309.118,96.891 304.057,94.811 297.908 L 91.031 286.727 103.439 282.542 C 110.263 280.240,115.848 278.293,115.849 278.214 C 115.851 278.037,105.779 251.469,105.667 251.358 C 105.622 251.313,104.281 250.903,102.686 250.448 C 101.091 249.992,99.767 249.592,99.744 249.559 C 99.392 249.059,92.314 231.778,92.423 231.684 C 92.506 231.611,114.566 217.070,141.443 199.371 C 168.320 181.672,190.329 167.177,190.352 167.159 C 190.375 167.142,194.478 150.548,199.469 130.283 C 204.461 110.018,208.591 93.393,208.647 93.337 C 208.783 93.200,207.849 92.117,219.889 106.372 C 225.809 113.381,230.754 119.115,230.879 119.115 C 231.003 119.115,235.907 112.580,241.777 104.593 C 247.646 96.606,252.539 90.066,252.649 90.059 C 252.760 90.053,257.215 105.664,262.549 124.751 L 272.249 159.454 319.221 201.564 C 345.055 224.724,366.255 243.610,366.330 243.533 C 366.406 243.455,366.852 241.590,367.323 239.389 C 374.377 206.379,371.630 172.477,359.404 141.654 C 332.879 74.780,265.861 31.844,194.418 35.953 M237.099 204.860 C 215.387 208.237,201.033 231.017,206.265 253.795 C 206.809 256.163,207.003 256.037,206.544 253.614 C 201.789 228.551,220.501 206.723,247.659 205.651 C 249.542 205.577,251.042 205.474,250.992 205.424 C 250.235 204.668,240.799 204.285,237.099 204.860 M264.651 276.140 C 262.037 277.993,256.916 279.890,252.975 280.465 C 250.136 280.879,247.616 281.501,245.507 282.308 C 243.209 283.188,243.760 283.400,248.341 283.402 L 251.817 283.403 254.134 282.595 C 258.671 281.013,261.941 279.178,264.666 276.686 C 266.033 275.435,266.026 275.165,264.651 276.140 " stroke="none" fill="#fbd4cc" fill-rule="evenodd"></path><path id="path3" d="M200.907 35.755 C 202.333 35.792,204.608 35.792,205.963 35.755 C 207.317 35.718,206.151 35.688,203.370 35.689 C 200.590 35.689,199.481 35.719,200.907 35.755 M194.052 35.959 C 194.373 36.008,194.847 36.007,195.106 35.957 C 195.365 35.907,195.103 35.867,194.523 35.869 C 193.944 35.870,193.732 35.911,194.052 35.959 M211.746 35.959 C 212.066 36.008,212.540 36.007,212.799 35.957 C 213.058 35.907,212.796 35.867,212.217 35.869 C 211.638 35.870,211.426 35.911,211.746 35.959 M190.787 36.168 C 191.049 36.218,191.428 36.216,191.630 36.164 C 191.831 36.111,191.617 36.070,191.153 36.072 C 190.690 36.074,190.525 36.118,190.787 36.168 M215.324 36.164 C 215.527 36.217,215.858 36.217,216.061 36.164 C 216.264 36.111,216.098 36.068,215.692 36.068 C 215.287 36.068,215.121 36.111,215.324 36.164 M188.152 36.375 C 188.354 36.428,188.686 36.428,188.889 36.375 C 189.092 36.322,188.926 36.278,188.520 36.278 C 188.115 36.278,187.949 36.322,188.152 36.375 M89.613 80.095 L 88.994 80.779 89.679 80.161 C 90.317 79.584,90.460 79.410,90.297 79.410 C 90.261 79.410,89.953 79.718,89.613 80.095 M319.010 81.938 C 319.581 82.517,320.095 82.991,320.153 82.991 C 320.211 82.991,319.791 82.517,319.221 81.938 C 318.650 81.359,318.136 80.885,318.078 80.885 C 318.020 80.885,318.439 81.359,319.010 81.938 M84.567 84.939 L 82.254 87.309 84.623 84.996 C 85.927 83.723,86.993 82.657,86.993 82.626 C 86.993 82.474,86.716 82.738,84.567 84.939 M324.908 87.836 C 325.478 88.415,325.993 88.889,326.051 88.889 C 326.108 88.889,325.689 88.415,325.118 87.836 C 324.548 87.256,324.034 86.783,323.976 86.783 C 323.918 86.783,324.337 87.256,324.908 87.836 M79.924 89.784 L 79.305 90.469 79.989 89.850 C 80.628 89.273,80.771 89.100,80.608 89.100 C 80.572 89.100,80.264 89.408,79.924 89.784 M370.560 189.152 C 370.560 189.558,370.603 189.724,370.656 189.521 C 370.709 189.318,370.709 188.986,370.656 188.784 C 370.603 188.581,370.560 188.747,370.560 189.152 M36.068 190.205 C 36.068 190.611,36.111 190.777,36.164 190.574 C 36.217 190.371,36.217 190.039,36.164 189.837 C 36.111 189.634,36.068 189.800,36.068 190.205 M370.779 191.890 C 370.779 192.412,370.820 192.625,370.870 192.364 C 370.920 192.104,370.920 191.677,370.870 191.417 C 370.820 191.156,370.779 191.369,370.779 191.890 M35.866 193.365 C 35.866 193.886,35.907 194.100,35.957 193.839 C 36.007 193.578,36.007 193.152,35.957 192.891 C 35.907 192.630,35.866 192.844,35.866 193.365 M370.997 195.577 C 370.999 196.272,371.038 196.531,371.085 196.152 C 371.132 195.774,371.131 195.205,371.083 194.888 C 371.035 194.572,370.996 194.882,370.997 195.577 M35.671 197.999 C 35.671 198.984,35.708 199.387,35.752 198.894 C 35.796 198.402,35.796 197.596,35.752 197.104 C 35.708 196.611,35.671 197.014,35.671 197.999 M371.226 203.476 C 371.226 205.155,371.259 205.843,371.299 205.003 C 371.339 204.163,371.339 202.788,371.299 201.948 C 371.259 201.108,371.226 201.796,371.226 203.476 M35.671 208.952 C 35.671 209.937,35.708 210.340,35.752 209.847 C 35.796 209.355,35.796 208.549,35.752 208.057 C 35.708 207.565,35.671 207.967,35.671 208.952 M370.997 211.374 C 370.999 212.070,371.038 212.328,371.085 211.950 C 371.132 211.571,371.131 211.003,371.083 210.686 C 371.035 210.370,370.996 210.679,370.997 211.374 M35.866 213.586 C 35.866 214.107,35.907 214.321,35.957 214.060 C 36.007 213.799,36.007 213.373,35.957 213.112 C 35.907 212.852,35.866 213.065,35.866 213.586 M370.775 215.166 C 370.777 215.629,370.820 215.794,370.870 215.532 C 370.921 215.270,370.919 214.891,370.866 214.689 C 370.813 214.488,370.772 214.702,370.775 215.166 M36.068 216.746 C 36.068 217.151,36.111 217.317,36.164 217.114 C 36.217 216.912,36.217 216.580,36.164 216.377 C 36.111 216.174,36.068 216.340,36.068 216.746 M370.560 217.799 C 370.560 218.204,370.603 218.370,370.656 218.167 C 370.709 217.965,370.709 217.633,370.656 217.430 C 370.603 217.227,370.560 217.393,370.560 217.799 M292.721 249.342 C 292.672 249.429,292.418 250.163,292.156 250.974 C 291.484 253.059,290.012 256.638,288.991 258.669 C 287.724 261.188,286.851 264.982,287.538 264.982 C 287.935 264.982,289.918 262.792,290.505 261.706 C 291.778 259.350,293.964 247.148,292.721 249.342 M284.844 270.101 C 271.388 290.250,247.845 296.381,221.696 286.546 C 219.708 285.799,224.295 288.726,227.344 290.151 C 247.577 299.606,275.441 289.676,285.766 269.331 C 286.584 267.719,286.247 268.000,284.844 270.101 M78.989 316.232 C 78.989 316.269,79.297 316.577,79.674 316.917 L 80.358 317.536 79.739 316.851 C 79.163 316.213,78.989 316.070,78.989 316.232 M84.673 322.117 C 87.312 324.807,87.625 325.109,87.625 324.958 C 87.625 324.927,86.322 323.624,84.729 322.061 L 81.833 319.221 84.673 322.117 M218.273 370.656 C 218.476 370.709,218.807 370.709,219.010 370.656 C 219.213 370.603,219.047 370.560,218.641 370.560 C 218.236 370.560,218.070 370.603,218.273 370.656 M190.366 370.870 C 190.628 370.921,191.007 370.919,191.208 370.866 C 191.410 370.813,191.195 370.772,190.732 370.775 C 190.269 370.777,190.104 370.820,190.366 370.870 M215.745 370.867 C 215.948 370.920,216.280 370.920,216.482 370.867 C 216.685 370.814,216.519 370.770,216.114 370.770 C 215.708 370.770,215.542 370.814,215.745 370.867 M193.631 371.083 C 193.951 371.132,194.425 371.130,194.684 371.080 C 194.943 371.030,194.681 370.991,194.102 370.992 C 193.523 370.994,193.311 371.035,193.631 371.083 M212.378 371.083 C 212.698 371.132,213.172 371.130,213.431 371.080 C 213.690 371.030,213.428 370.991,212.849 370.992 C 212.270 370.994,212.058 371.035,212.378 371.083 M200.474 371.300 C 202.125 371.336,204.826 371.336,206.477 371.300 C 208.128 371.265,206.777 371.235,203.476 371.235 C 200.174 371.235,198.823 371.265,200.474 371.300 " stroke="none" fill="#eb6c64" fill-rule="evenodd"></path><path id="path4" d="M241.452 204.474 C 242.238 204.515,243.471 204.515,244.190 204.474 C 244.909 204.433,244.265 204.400,242.759 204.400 C 241.253 204.400,240.665 204.434,241.452 204.474 M247.454 205.738 C 248.183 205.779,249.320 205.779,249.982 205.737 C 250.644 205.696,250.047 205.662,248.657 205.662 C 247.267 205.663,246.726 205.697,247.454 205.738 M243.971 205.938 C 244.173 205.991,244.505 205.991,244.708 205.938 C 244.910 205.885,244.745 205.841,244.339 205.841 C 243.934 205.841,243.768 205.885,243.971 205.938 M207.045 207.004 L 206.319 207.794 207.109 207.068 C 207.844 206.392,207.996 206.214,207.835 206.214 C 207.800 206.214,207.444 206.569,207.045 207.004 M213.262 213.217 L 212.217 214.323 213.323 213.278 C 214.350 212.307,214.525 212.112,214.368 212.112 C 214.335 212.112,213.837 212.609,213.262 213.217 M216.844 215.324 L 215.587 216.640 216.904 215.383 C 218.127 214.215,218.317 214.007,218.161 214.007 C 218.128 214.007,217.536 214.600,216.844 215.324 M205.209 239.916 C 205.209 240.321,205.253 240.487,205.306 240.284 C 205.359 240.082,205.359 239.750,205.306 239.547 C 205.253 239.344,205.209 239.510,205.209 239.916 M200.815 243.497 C 200.815 244.713,200.850 245.211,200.893 244.602 C 200.935 243.994,200.935 242.999,200.893 242.391 C 200.850 241.783,200.815 242.280,200.815 243.497 M205.024 243.918 C 205.024 244.903,205.060 245.305,205.104 244.813 C 205.149 244.321,205.149 243.515,205.104 243.023 C 205.060 242.530,205.024 242.933,205.024 243.918 M286.316 243.391 C 286.318 243.971,286.359 244.182,286.407 243.862 C 286.455 243.542,286.454 243.068,286.404 242.809 C 286.354 242.550,286.315 242.812,286.316 243.391 M205.865 246.130 C 205.865 247.056,205.903 247.409,205.947 246.914 C 205.992 246.418,205.991 245.660,205.946 245.229 C 205.900 244.797,205.864 245.203,205.865 246.130 M150.173 275.461 L 149.447 276.251 150.237 275.525 C 150.972 274.849,151.124 274.671,150.963 274.671 C 150.928 274.671,150.572 275.026,150.173 275.461 M265.666 275.518 C 265.695 275.636,265.150 276.263,264.455 276.912 L 263.191 278.092 264.548 276.944 C 265.887 275.812,266.288 275.303,265.842 275.303 C 265.716 275.303,265.637 275.399,265.666 275.518 M144.064 281.780 L 143.339 282.570 144.128 281.844 C 144.864 281.168,145.015 280.990,144.854 280.990 C 144.819 280.990,144.464 281.345,144.064 281.780 M247.235 283.673 C 247.844 283.715,248.839 283.715,249.447 283.673 C 250.055 283.630,249.558 283.596,248.341 283.596 C 247.125 283.596,246.627 283.630,247.235 283.673 M241.232 286.190 C 241.435 286.243,241.767 286.243,241.969 286.190 C 242.172 286.138,242.006 286.094,241.601 286.094 C 241.195 286.094,241.029 286.138,241.232 286.190 M245.234 286.190 C 245.437 286.243,245.769 286.243,245.972 286.190 C 246.174 286.138,246.008 286.094,245.603 286.094 C 245.197 286.094,245.032 286.138,245.234 286.190 " stroke="none" fill="#c47f78" fill-rule="evenodd"></path></g></svg>