<svg xmlns="http://www.w3.org/2000/svg" fill="none" viewBox="54.59 44 115.41 84.45">
<path d="M150.765 112.502L57.6266 112.502C56.5089 112.502 55.6018 111.661 55.6018 110.625L55.6018 46.8152C55.6018 45.7793 56.5089 44.9385 57.6266 44.9385L150.765 44.9385C151.883 44.9385 152.79 45.7793 152.79 46.8152L152.79 110.625C152.79 111.661 151.883 112.502 150.765 112.502Z" fill="#C2C2C2"/>
<path d="M150.765 113.44L57.6265 113.44C55.952 113.44 54.5894 112.177 54.5894 110.625L54.5894 46.8151C54.5894 45.2631 55.952 44 57.6265 44L150.765 44C152.439 44 153.802 45.2631 153.802 46.8151L153.802 110.625C153.802 112.177 152.439 113.44 150.765 113.44ZM57.6265 45.8768C57.0676 45.8768 56.6141 46.2971 56.6141 46.8151L56.6141 110.625C56.6141 111.143 57.0676 111.563 57.6265 111.563L150.765 111.563C151.324 111.563 151.777 111.143 151.777 110.625L151.777 46.8151C151.777 46.2971 151.324 45.8768 150.765 45.8768L57.6265 45.8768Z" fill="#212A41"/>
<path d="M156.839 112.502L63.7008 112.502C62.5831 112.502 61.676 111.661 61.676 110.625L61.676 46.8152C61.676 45.7793 62.5831 44.9385 63.7008 44.9385L156.839 44.9385C157.957 44.9385 158.864 45.7793 158.864 46.8152L158.864 110.625C158.864 111.661 157.957 112.502 156.839 112.502Z" fill="#E0E0E0"/>
<path d="M156.839 113.44L63.7007 113.44C62.0262 113.44 60.6636 112.177 60.6636 110.625L60.6636 46.8151C60.6636 45.2631 62.0262 44 63.7007 44L156.839 44C158.514 44 159.876 45.2631 159.876 46.8151L159.876 110.625C159.876 112.177 158.514 113.44 156.839 113.44ZM63.7007 45.8768C63.1419 45.8768 62.6883 46.2971 62.6883 46.8151L62.6883 110.625C62.6883 111.143 63.1419 111.563 63.7007 111.563L156.839 111.563C157.398 111.563 157.852 111.143 157.852 110.625L157.852 46.8151C157.852 46.2971 157.398 45.8768 156.839 45.8768L63.7007 45.8768Z" fill="#212A41"/>
<path d="M154.814 109.686C154.256 109.686 153.802 109.266 153.802 108.748L153.802 48.6916C153.802 48.1736 154.256 47.7532 154.814 47.7532C155.373 47.7532 155.827 48.1736 155.827 48.6916L155.827 108.748C155.827 109.266 155.373 109.686 154.814 109.686Z" fill="#C2C2C2"/>
<path d="M65.7255 109.686C65.1667 109.686 64.7131 109.266 64.7131 108.748L64.7131 48.6916C64.7131 48.1736 65.1667 47.7532 65.7255 47.7532C66.2843 47.7532 66.7379 48.1736 66.7379 48.6916L66.7379 108.748C66.7379 109.266 66.2843 109.686 65.7255 109.686Z" fill="#FEFEFE"/>
<path d="M110.27 71.2134L62.9355 112.359C63.1724 112.448 63.4296 112.502 63.7009 112.502L156.839 112.502C157.111 112.502 157.368 112.448 157.603 112.359L110.27 71.2134Z" fill="#E0E0E0"/>
<path d="M156.839 113.44L63.7008 113.44C63.3121 113.44 62.9253 113.369 62.5528 113.226C62.2329 113.106 62.0041 112.841 61.9413 112.528C61.8785 112.215 61.9919 111.892 62.245 111.674L109.578 70.5282C109.964 70.1885 110.574 70.1885 110.963 70.5282L158.295 111.674C158.548 111.892 158.662 112.215 158.599 112.528C158.536 112.841 158.305 113.106 157.987 113.226C157.615 113.369 157.228 113.44 156.839 113.44ZM65.3307 111.563L155.209 111.563L110.27 72.5007L65.3307 111.563Z" fill="#212A41"/>
<path d="M110.27 86.227L158.153 45.4133C157.797 45.128 157.345 44.9385 156.839 44.9385L63.7008 44.9385C63.1926 44.9385 62.7431 45.128 62.3867 45.4133L110.27 86.227Z" fill="#E0E0E0"/>
<path d="M110.27 87.1653C110.023 87.1653 109.778 87.0827 109.586 86.9176L61.7024 46.1057C61.4898 45.9237 61.3703 45.6684 61.3744 45.4019C61.3784 45.1336 61.504 44.8821 61.7226 44.7057C62.2956 44.244 62.98 44 63.7008 44L156.839 44C157.56 44 158.242 44.244 158.817 44.7057C159.034 44.8802 159.162 45.1336 159.166 45.4019C159.17 45.6684 159.05 45.9237 158.838 46.1057L110.954 86.9176C110.76 87.0827 110.515 87.1653 110.27 87.1653ZM64.4257 45.8768L110.27 84.9526L156.112 45.8768L64.4257 45.8768Z" fill="#212A41"/>
<path d="M142.666 127.516C153.848 127.516 162.913 119.113 162.913 108.748C162.913 98.383 153.848 89.9805 142.666 89.9805C131.484 89.9805 122.418 98.383 122.418 108.748C122.418 119.113 131.484 127.516 142.666 127.516Z" fill="#1F4C4C"/>
<path d="M142.666 128.454C130.943 128.454 121.406 119.614 121.406 108.748C121.406 97.8815 130.943 89.042 142.666 89.042C154.389 89.042 163.926 97.8815 163.926 108.748C163.926 119.614 154.387 128.454 142.666 128.454ZM142.666 90.9187C132.06 90.9187 123.431 98.9175 123.431 108.748C123.431 118.578 132.06 126.577 142.666 126.577C153.272 126.577 161.901 118.578 161.901 108.748C161.901 98.9175 153.272 90.9187 142.666 90.9187Z" fill="#212A41"/>
<path d="M148.74 127.516C159.923 127.516 168.988 119.113 168.988 108.748C168.988 98.383 159.923 89.9805 148.74 89.9805C137.558 89.9805 128.493 98.383 128.493 108.748C128.493 119.113 137.558 127.516 148.74 127.516Z" fill="#134848"/>
<path d="M148.74 128.454C137.017 128.454 127.48 119.614 127.48 108.748C127.48 97.8815 137.017 89.042 148.74 89.042C160.463 89.042 170 97.8815 170 108.748C170 119.614 160.461 128.454 148.74 128.454ZM148.74 90.9187C138.134 90.9187 129.505 98.9175 129.505 108.748C129.505 118.578 138.134 126.577 148.74 126.577C159.346 126.577 167.975 118.578 167.975 108.748C167.975 98.9175 159.346 90.9187 148.74 90.9187Z" fill="#212A41"/>
<path d="M148.74 115.317C144.832 115.317 141.654 112.37 141.654 108.748C141.654 105.126 144.832 102.18 148.74 102.18C152.648 102.18 155.827 105.126 155.827 108.748C155.827 112.37 152.646 115.317 148.74 115.317ZM148.74 104.056C145.95 104.056 143.678 106.162 143.678 108.748C143.678 111.334 145.95 113.44 148.74 113.44C151.53 113.44 153.802 111.334 153.802 108.748C153.802 106.162 151.53 104.056 148.74 104.056Z" fill="#628282"/>
<path d="M148.74 120.947C144.762 120.947 141.036 119.305 138.525 116.439C136.013 113.573 135.047 109.818 135.875 106.134C136.912 101.524 140.947 97.7821 145.92 96.8231C149.894 96.0537 153.948 96.9507 157.038 99.2798C160.127 101.609 161.901 105.06 161.901 108.748C161.901 110.486 161.514 112.166 160.751 113.742C160.287 114.699 159.216 115.317 158.024 115.317L156.839 115.317C155.165 115.317 153.802 114.054 153.802 112.502L153.802 108.748C153.802 108.23 154.256 107.81 154.815 107.81C155.373 107.81 155.827 108.23 155.827 108.748L155.827 112.502C155.827 113.02 156.28 113.44 156.839 113.44L158.024 113.44C158.415 113.44 158.769 113.252 158.905 112.973C159.548 111.642 159.876 110.219 159.876 108.748C159.876 105.627 158.376 102.707 155.76 100.734C153.144 98.7637 149.71 98.0055 146.333 98.6586C142.138 99.4693 138.73 102.628 137.855 106.517C137.153 109.645 137.969 112.83 140.095 115.255C142.221 117.679 145.371 119.07 148.74 119.07C149.299 119.07 149.753 119.491 149.753 120.009C149.753 120.527 149.299 120.947 148.74 120.947Z" fill="#628282"/>
<path d="M132.542 109.686C131.983 109.686 131.53 109.266 131.53 108.748C131.53 99.9515 139.25 92.7954 148.74 92.7954C149.299 92.7954 149.753 93.2158 149.753 93.7338C149.753 94.2518 149.299 94.6722 148.74 94.6722C140.366 94.6722 133.555 100.986 133.555 108.748C133.555 109.266 133.101 109.686 132.542 109.686Z" fill="#628282"/>
<path d="M148.74 124.701C148.181 124.701 147.728 124.28 147.728 123.762C147.728 123.244 148.181 122.824 148.74 122.824C157.115 122.824 163.926 116.511 163.926 108.748C163.926 108.23 164.379 107.81 164.938 107.81C165.497 107.81 165.951 108.23 165.951 108.748C165.951 117.545 158.23 124.701 148.74 124.701Z" fill="black"/>
</svg>