<svg width="66" height="63" viewBox="0 0 66 63" fill="none" xmlns="http://www.w3.org/2000/svg">
<path d="M30.7061 61.5234C47.3091 61.5234 60.7686 47.8821 60.7686 31.0547C60.7686 14.2273 47.3091 0.585938 30.7061 0.585938C14.103 0.585938 0.643555 14.2273 0.643555 31.0547C0.643555 47.8821 14.103 61.5234 30.7061 61.5234Z" fill="#99A2B9"/>
<path d="M30.7061 62.1094C13.8109 62.1094 0.0654297 48.1781 0.0654297 31.0547C0.0654297 13.9312 13.8109 0 30.7061 0C47.6012 0 61.3467 13.9312 61.3467 31.0547C61.3467 48.1781 47.6012 62.1094 30.7061 62.1094ZM30.7061 1.17188C14.448 1.17188 1.22168 14.577 1.22168 31.0547C1.22168 47.5324 14.448 60.9375 30.7061 60.9375C46.9641 60.9375 60.1904 47.5324 60.1904 31.0547C60.1904 14.577 46.9629 1.17188 30.7061 1.17188Z" fill="#212A41"/>
<path d="M35.3311 61.5234C51.9341 61.5234 65.3936 47.8821 65.3936 31.0547C65.3936 14.2273 51.9341 0.585938 35.3311 0.585938C18.728 0.585938 5.26855 14.2273 5.26855 31.0547C5.26855 47.8821 18.728 61.5234 35.3311 61.5234Z" fill="#B7C0D7"/>
<path d="M35.3311 62.1094C18.4359 62.1094 4.69043 48.1781 4.69043 31.0547C4.69043 13.9312 18.4359 0 35.3311 0C52.2262 0 65.9717 13.9312 65.9717 31.0547C65.9717 48.1781 52.2262 62.1094 35.3311 62.1094ZM35.3311 1.17188C19.073 1.17188 5.84668 14.577 5.84668 31.0547C5.84668 47.5324 19.073 60.9375 35.3311 60.9375C51.5891 60.9375 64.8154 47.5324 64.8154 31.0547C64.8154 14.577 51.5879 1.17188 35.3311 1.17188Z" fill="#212A41"/>
<path d="M35.3311 56.8359C49.3798 56.8359 60.7686 45.2933 60.7686 31.0547C60.7686 16.8161 49.3798 5.27344 35.3311 5.27344C21.2823 5.27344 9.89355 16.8161 9.89355 31.0547C9.89355 45.2933 21.2823 56.8359 35.3311 56.8359Z" fill="#E0E0E0"/>
<path d="M35.3311 57.4219C20.9855 57.4219 9.31543 45.593 9.31543 31.0547C9.31543 16.5164 20.9855 4.6875 35.3311 4.6875C49.6766 4.6875 61.3467 16.5164 61.3467 31.0547C61.3467 45.593 49.6755 57.4219 35.3311 57.4219ZM35.3311 5.85938C21.6237 5.85938 10.4717 17.1621 10.4717 31.0547C10.4717 44.9473 21.6237 56.25 35.3311 56.25C49.0384 56.25 60.1904 44.9473 60.1904 31.0547C60.1904 17.1621 49.0384 5.85938 35.3311 5.85938Z" fill="#212A41"/>
<path d="M35.3311 55.0781C35.0119 55.0781 34.7529 54.8156 34.7529 54.4922C34.7529 54.1688 35.0119 53.9062 35.3311 53.9062C47.7631 53.9062 57.8779 43.6547 57.8779 31.0547C57.8779 30.7313 58.1369 30.4688 58.4561 30.4688C58.7752 30.4688 59.0342 30.7313 59.0342 31.0547C59.0342 44.3016 48.4001 55.0781 35.3311 55.0781Z" fill="#C2C2C2"/>
<path d="M12.2061 31.6406C11.8869 31.6406 11.6279 31.3781 11.6279 31.0547C11.6279 17.8078 22.2608 7.03125 35.3311 7.03125C35.6502 7.03125 35.9092 7.29375 35.9092 7.61719C35.9092 7.94063 35.6502 8.20312 35.3311 8.20312C22.8991 8.20312 12.7842 18.4547 12.7842 31.0547C12.7842 31.3781 12.5252 31.6406 12.2061 31.6406Z" fill="#FEFEFE"/>
<path d="M35.3311 49.8047C37.8854 49.8047 39.9561 47.706 39.9561 45.1172C39.9561 42.5284 37.8854 40.4297 35.3311 40.4297C32.7767 40.4297 30.7061 42.5284 30.7061 45.1172C30.7061 47.706 32.7767 49.8047 35.3311 49.8047Z" fill="#1F4C4C"/>
<path d="M35.3311 50.3906C32.4624 50.3906 30.1279 48.0246 30.1279 45.1172C30.1279 42.2098 32.4624 39.8438 35.3311 39.8438C38.1997 39.8438 40.5342 42.2098 40.5342 45.1172C40.5342 48.0246 38.1997 50.3906 35.3311 50.3906ZM35.3311 41.0156C33.0995 41.0156 31.2842 42.8555 31.2842 45.1172C31.2842 47.3789 33.0995 49.2188 35.3311 49.2188C37.5626 49.2188 39.3779 47.3789 39.3779 45.1172C39.3779 42.8555 37.5615 41.0156 35.3311 41.0156Z" fill="#212A41"/>
<path d="M33.0186 45.7031C32.6994 45.7031 32.4404 45.4406 32.4404 45.1172C32.4404 43.5012 33.7377 42.1875 35.3311 42.1875C35.6502 42.1875 35.9092 42.45 35.9092 42.7734C35.9092 43.0969 35.6502 43.3594 35.3311 43.3594C34.3748 43.3594 33.5967 44.148 33.5967 45.1172C33.5967 45.4406 33.3377 45.7031 33.0186 45.7031Z" fill="#B7CECE"/>
<path d="M37.6436 35.7417H31.8623V33.153C31.8623 29.6292 33.8221 26.4206 36.914 24.8081C38.3165 24.0757 39.1663 22.4022 38.6449 20.6163C38.3327 19.5464 37.4852 18.6687 36.4341 18.337C34.0546 17.587 31.8623 19.3776 31.8623 21.6792H24.9248C24.9248 15.7601 29.7591 10.9659 35.6363 11.137C41.0418 11.294 45.5535 15.8468 45.7315 21.3241C45.8483 24.9054 44.1926 28.1093 41.5875 30.1015C39.719 31.5312 38.2841 33.4601 37.6436 35.7417Z" fill="#1F4C4C"/>
<path d="M37.6436 36.328H31.8623C31.5432 36.328 31.2842 36.0655 31.2842 35.7421V33.1534C31.2842 29.4116 33.34 26.0132 36.6492 24.287C37.9083 23.6296 38.5015 22.1894 38.091 20.7831C37.8309 19.8937 37.1302 19.1718 36.2618 18.8987C35.3357 18.6069 34.3725 18.7593 33.621 19.3194C32.881 19.8714 32.4404 20.7538 32.4404 21.6808C32.4404 22.0042 32.1814 22.2667 31.8623 22.2667H24.9248C24.6057 22.2667 24.3467 22.0042 24.3467 21.6808C24.3467 18.6503 25.5307 15.8155 27.6813 13.6979C29.8296 11.5815 32.6324 10.4542 35.6536 10.5515C41.3412 10.7179 46.1223 15.5425 46.3096 21.3058C46.4276 24.9233 44.7926 28.3862 41.9367 30.5706C40.0705 31.9979 38.779 33.8425 38.2009 35.9026C38.1292 36.1546 37.9014 36.328 37.6436 36.328ZM32.4404 35.1562H37.2169C37.9153 33.0222 39.2993 31.1202 41.2395 29.6343C43.796 27.6796 45.2598 24.5812 45.1546 21.3444C44.9857 16.1882 40.7088 11.8722 35.619 11.7233C32.9492 11.6214 30.4101 12.6433 28.4872 14.537C26.7031 16.2948 25.6613 18.6046 25.5203 21.0937H31.327C31.4819 20.0167 32.0589 19.0288 32.9365 18.3749C33.9863 17.5921 35.3253 17.3765 36.6052 17.7784C37.8366 18.1663 38.831 19.1894 39.1999 20.4503C39.7699 22.405 38.9386 24.4101 37.1776 25.3276C34.2557 26.8534 32.4404 29.8511 32.4404 33.1534V35.1562Z" fill="#212A41"/>
<path d="M27.5714 19.9218C27.5171 19.9218 27.4616 19.9136 27.4061 19.8972C27.0997 19.8046 26.9251 19.4788 27.0164 19.1683C27.435 17.7421 28.2213 16.4308 29.2919 15.3784C30.9893 13.7073 33.2301 12.8167 35.5843 12.8941C35.9034 12.9034 36.1554 13.173 36.1462 13.4976C36.1369 13.8198 35.8849 14.0671 35.5519 14.0659C33.5111 13.9944 31.5686 14.7714 30.0967 16.2187C29.1682 17.1327 28.486 18.2683 28.1241 19.5034C28.0513 19.7565 27.8212 19.9218 27.5714 19.9218Z" fill="#B7CECE"/>
</svg>
